<svg xmlns="http://www.w3.org/2000/svg" viewBox="0 0 64 64">
  <defs>
    <linearGradient id="sky" x1="0" y1="0" x2="0" y2="1">
      <stop offset="0" stop-color="#120c24"/>
      <stop offset="1" stop-color="#3b1f63"/>
    </linearGradient>
    <clipPath id="tile"><rect width="64" height="64" rx="14"/></clipPath>
  </defs>
  <rect width="64" height="64" rx="14" fill="url(#sky)"/>
  <circle cx="13" cy="12" r="5" fill="#ffe7a3"/>
  <circle cx="15.2" cy="10.6" r="4.2" fill="#120c24" opacity="0.35"/>
  <g clip-path="url(#tile)">
    <path d="M0 64V41l6-5 6 5v-4l7-6 7 6v6h7v-5l7-6 7 6v3l6-5 8 6v23Z" fill="#2e1b55"/>
    <path d="M12 44h2v3h-2zM24 40h2v3h-2zM40 41h2v3h-2zM55 44h2v3h-2z" fill="#ffd96a" opacity="0.8"/>
  </g>
  <path d="M49 9V55" stroke="#e9dcc2" stroke-width="2.2" stroke-linecap="round"/>
  <circle cx="49" cy="7.5" r="2.4" fill="#ffd23f"/>
  <path d="M50.2 10H62L57.6 16 62 22H50.2Z" fill="#ff3d7f"/>
  <path d="M50.2 19.5H60.5" stroke="#ffd23f" stroke-width="1.1"/>
  <g transform="translate(3 19) scale(0.44)"><g><path d="M8 62a42 29 0 1 0 84 0a42 29 0 1 0 -84 0ZM13 35a15 15 0 1 0 30 0a15 15 0 1 0 -30 0ZM57 35a15 15 0 1 0 30 0a15 15 0 1 0 -30 0Z" fill="#1a1030" stroke="#1a1030" stroke-width="7" stroke-linejoin="round" stroke-linecap="round"></path><path d="M8 62a42 29 0 1 0 84 0a42 29 0 1 0 -84 0ZM13 35a15 15 0 1 0 30 0a15 15 0 1 0 -30 0ZM57 35a15 15 0 1 0 30 0a15 15 0 1 0 -30 0Z" fill="#6fdc3a"></path><path d="M20 76a30 13 0 1 0 60 0a30 13 0 1 0 -60 0Z" fill="#fff" opacity="0.28"></path><path d="M12 66 Q50 96 88 66 Q86 84 50 91 Q14 84 12 66Z" fill="#1a1030" opacity="0.14"></path><circle cx="17" cy="56" r="4.5" fill="#b86cff"></circle><circle cx="83" cy="54" r="3.8" fill="#b86cff"></circle><circle cx="39" cy="49" r="3" fill="#b86cff"></circle><circle cx="63" cy="50" r="2.6" fill="#b86cff"></circle><circle cx="78" cy="68" r="3.2" fill="#b86cff"></circle><g><circle cx="28" cy="35" r="9.5" fill="#fff"></circle><ellipse cx="29" cy="35.95" rx="5.747500000000001" ry="3.2395000000000005" fill="#1a1030"></ellipse><circle cx="26.625" cy="32.91" r="1.9000000000000001" fill="#fff"></circle></g><g><circle cx="72" cy="35" r="9.5" fill="#fff"></circle><ellipse cx="73" cy="35.95" rx="5.747500000000001" ry="3.2395000000000005" fill="#1a1030"></ellipse><circle cx="70.625" cy="32.91" r="1.9000000000000001" fill="#fff"></circle></g><circle cx="46" cy="54" r="1.6" fill="#1a1030"></circle><circle cx="54" cy="54" r="1.6" fill="#1a1030"></circle><path d="M20 63 Q50 84 80 63" fill="none" stroke="#1a1030" stroke-width="3.6" stroke-linecap="round"></path><path d="M73 70 q3 7 0 11 q-3 -4 0 -11Z" fill="#b86cff" stroke="#1a1030" stroke-width="2" stroke-linejoin="round"></path></g></g>
</svg>
